<svg width="16" height="16" viewBox="0 0 16 16" fill="none" xmlns="http://www.w3.org/2000/svg">
<rect width="16" height="16" fill="#F5F5F5"/>
<g clip-path="url(#clip0_0_1)">
<rect width="16" height="16" fill="white"/>
<ellipse cx="7.5" cy="7" rx="6.5" ry="7" fill="black"/>
<path d="M10.5 7C10.5 8.8722 10.1195 10.5424 9.52766 11.7261C8.92086 12.9397 8.17508 13.5 7.5 13.5C6.82492 13.5 6.07914 12.9397 5.47234 11.7261C4.88049 10.5424 4.5 8.8722 4.5 7C4.5 5.12779 4.88049 3.45755 5.47234 2.27386C6.07914 1.06026 6.82492 0.5 7.5 0.5C8.17508 0.5 8.92086 1.06026 9.52766 2.27386C10.1195 3.45755 10.5 5.12779 10.5 7Z" fill="black" stroke="white"/>
<path d="M1 5L13.9999 5.04887" stroke="white"/>
<path d="M1 9L13.9999 9.04887" stroke="white"/>
<path d="M8.26953 13.9297C8.28912 13.9297 8.30037 13.9246 8.31858 13.918C8.32731 13.9148 8.33662 13.9084 8.34289 13.9015C8.35057 13.8929 8.35453 13.8963 8.36545 13.8943C8.37463 13.8926 8.3797 13.8846 8.38868 13.8826C8.39796 13.8805 8.40517 13.8789 8.41493 13.8789C8.43195 13.8789 8.46505 13.8778 8.4783 13.8672C8.48528 13.8616 8.49587 13.8638 8.50391 13.8602C8.51733 13.8543 8.53606 13.8501 8.55057 13.8477C8.57819 13.8431 8.60379 13.8288 8.63108 13.8223C8.69079 13.808 8.75079 13.7898 8.81033 13.7739C8.84164 13.7655 8.90765 13.7645 8.92101 13.7274C8.92766 13.7089 8.91506 13.6897 8.91407 13.6719C8.91297 13.6521 8.89221 13.6379 8.89063 13.6181C8.88814 13.5869 8.82645 13.5953 8.81055 13.6076C8.79038 13.6233 8.77108 13.6304 8.74805 13.6389C8.73823 13.6425 8.72784 13.6489 8.71875 13.6532C8.70933 13.6577 8.69634 13.6612 8.68772 13.6662C8.64425 13.6916 8.5922 13.6996 8.54688 13.7209C8.53641 13.7258 8.51593 13.7336 8.50478 13.7344C8.48852 13.7355 8.47797 13.7459 8.46268 13.75C8.42071 13.7612 8.37821 13.7781 8.34006 13.799C8.31564 13.8125 8.28803 13.8246 8.26476 13.8398C8.23555 13.8589 8.20036 13.8826 8.1671 13.8937C8.14488 13.9011 8.12255 13.9113 8.0994 13.9171C8.07172 13.924 8.03567 13.9219 8.00695 13.9219C7.96071 13.9219 7.91512 13.9226 7.86914 13.9256C7.82912 13.9281 7.78843 13.9375 7.74827 13.9375C7.71821 13.9375 7.68612 13.9344 7.65625 13.9377C7.63518 13.9401 7.61714 13.9453 7.59571 13.9453C7.59149 13.9453 7.62061 13.9398 7.62739 13.9375C7.65946 13.9266 7.69915 13.9223 7.73308 13.9219C7.81741 13.9208 7.90193 13.918 7.98655 13.918C8.0956 13.918 8.20529 13.9216 8.31424 13.9173C8.36494 13.9153 8.41491 13.907 8.46572 13.9063C8.53109 13.9053 8.5946 13.9015 8.65929 13.8915C8.71413 13.883 8.77333 13.8786 8.82683 13.8628C8.86291 13.8522 8.90759 13.8442 8.9375 13.8203" stroke="white" stroke-width="0.2" stroke-linecap="round"/>
<path d="M8.84441 13.5356C8.88125 13.4573 8.99346 13.4628 9.04706 13.3939C9.04864 13.3918 9.05553 13.3738 9.05047 13.3726C9.04341 13.3708 9.02761 13.4257 9.0245 13.4318C9.00279 13.4737 8.98436 13.5226 8.94999 13.5569C8.91507 13.5919 9.01445 13.4793 9.05728 13.4547C9.12451 13.4162 9.06207 13.5307 9.07729 13.5212C9.12046 13.4942 9.15437 13.4574 9.20246 13.4377C9.25835 13.4149 9.1989 13.4648 9.18543 13.4777C9.18186 13.4812 9.12161 13.5242 9.14456 13.5084C9.15899 13.4985 9.17411 13.4912 9.19054 13.4854C9.28442 13.4525 9.38793 13.4355 9.48729 13.4266C9.56585 13.4197 9.64235 13.3932 9.71805 13.3824C9.76161 13.3761 9.80241 13.351 9.8445 13.3445C9.86054 13.342 9.89749 13.325 9.89303 13.3406C9.88849 13.3565 9.84063 13.367 9.82534 13.367" stroke="white" stroke-width="0.2" stroke-linecap="round"/>
<path d="M9.23524 13.6966C9.17826 13.699 9.12241 13.712 9.06579 13.7179C9.05245 13.7192 9.03804 13.7181 9.02492 13.7213C9.02144 13.7221 8.99746 13.7331 8.99512 13.7298C8.97544 13.7017 9.12494 13.6482 9.14924 13.6412C9.25296 13.6116 9.35813 13.5875 9.46004 13.5527C9.4886 13.5429 9.52515 13.5357 9.55115 13.5203C9.57053 13.5088 9.6209 13.4917 9.64141 13.4897C9.67492 13.4863 9.68777 13.4827 9.71805 13.4684C9.7348 13.4604 9.75946 13.4683 9.77765 13.4633C9.80338 13.4561 9.82101 13.4437 9.84833 13.4437" stroke="white" stroke-width="0.2" stroke-linecap="round"/>
<path d="M9.79688 13.4922C9.78014 13.5073 9.75151 13.5273 9.7283 13.5273C9.71187 13.5273 9.70025 13.5395 9.68555 13.5428C9.67507 13.5451 9.66241 13.5398 9.65234 13.5438C9.62486 13.5548 9.59469 13.5544 9.56836 13.5686C9.52928 13.5896 9.48232 13.5998 9.44358 13.623C9.4012 13.6485 9.3464 13.6478 9.29991 13.6602C9.2585 13.6712 9.21632 13.6729 9.17578 13.6895C9.1527 13.6989 9.1281 13.7067 9.10352 13.7109C9.08014 13.715 9.06198 13.7268 9.04123 13.7344C8.99226 13.7523 8.93998 13.7609 8.89062 13.7773" stroke="white" stroke-width="0.2" stroke-linecap="round"/>
<path d="M10.5087 6.45836L14.5903 10.5523C14.8483 10.8111 14.7506 11.2502 14.4072 11.3752L9.83053 13.0409C9.48715 13.1659 9.13006 12.8924 9.16136 12.5283L9.65647 6.76856C9.69291 6.34469 10.2084 6.15708 10.5087 6.45836Z" fill="black" stroke="white"/>
<line x1="11.1923" y1="9.91083" x2="13.4914" y2="15.8027" stroke="black"/>
</g>
<defs>
<clipPath id="clip0_0_1">
<rect width="16" height="16" fill="white"/>
</clipPath>
</defs>
</svg>
